<?xml version="1.0" ?><!DOCTYPE svg  PUBLIC '-//W3C//DTD SVG 1.1//EN'  'http://www.w3.org/Graphics/SVG/1.1/DTD/svg11.dtd'><svg enable-background="new 0 0 512 512" height="512px" id="Layer_1" version="1.1" viewBox="0 0 512 512" width="512px" xml:space="preserve" xmlns="http://www.w3.org/2000/svg" xmlns:xlink="http://www.w3.org/1999/xlink"><circle cx="256" cy="255.517" fill="#82D0D8" r="256"/><path d="M384,105H76c-8.836,0-16,7.612-16,16.448v220C60,350.285,67.164,357,76,357h116.45  c0.765-4,3.661-7.252,7.571-8.541c0.127-0.043,3.498-1.044,6.754-1.751c3.211-0.699,6.654-1.014,6.801-1.03l0.426-0.019l0.723-0.002  c4.586,0,8.832,2.603,10.566,6.802l1.963,4.541h0.488l2.84-3.987c2.043-3.035,5.646-4.81,9.4-4.81c1.299,0,2.562,0.279,3.758,0.716  l0.506,0.235l11.383,5.088l0.25,0.14c1.031,0.55,1.936,1.273,2.726,2.094l-1.749-6.483l0.41-0.269  c-0.711-3.613-1.266-7.249,2.734-9.972v-1.902l12-5.566c0-0.18,0-0.91,0-1.094c0-1.254-4.895-2.25-6.867-3.098l0.072-0.016  l-1.011-0.43c-5.551-2.094-8.658-8.043-7.509-13.887l0.184-0.539l5.11-18.84l0.104-0.262c1.691-4.902,6.539-8.328,11.781-8.328  c0.641,0,1.289,0.051,1.926,0.156l10.123,1.656c0.145-0.25,0.294-0.5,0.438-0.75l-6.054-7.371  c-4.035-4.906-3.883-11.789,0.145-16.27l0.379-0.395l14.09-13.678l0.207-0.174c2.203-1.867,5.059-2.895,8.039-2.895  c2.895,0,5.684,0.975,7.855,2.742l7.926,6.479c0.121-0.066,0.242-0.133,0.363-0.199l-1.598-9.697  c-0.977-5.961,2.598-11.842,8.316-13.711l0.551-0.16l19.211-4.779l0.254-0.047c0.703-0.127,1.414-0.189,2.125-0.189  c5.117,0,9.934,3.299,11.719,8.023l3.555,9.385l3.367-8.895c1.789-4.742,6.449-7.934,11.59-7.934c0.828,0,1.652,0.084,2.453,0.254  l0.531,0.131L400,232.749V121.448C400,112.612,392.836,105,384,105z" fill="#004259"/><circle cx="82.695" cy="124.05" fill="#B4D36A" r="8"/><circle cx="106.695" cy="124.05" fill="#EAC653" r="8"/><circle cx="130.695" cy="124.05" fill="#FF5F5F" r="8"/><path d="M260,339.753v-1.902l12-5.566c0-0.18,0-0.91,0-1.094c0-1.254-4.895-2.25-6.867-3.098l0.072-0.016  l-1.011-0.43c-5.551-2.094-8.658-8.043-7.509-13.887l0.184-0.539l5.11-18.84l0.104-0.262c1.691-4.902,6.539-8.328,11.781-8.328  c0.641,0,1.289,0.051,1.926,0.156l10.123,1.656c0.145-0.25,0.294-0.5,0.438-0.75l-6.054-7.371  c-4.035-4.906-3.883-11.789,0.145-16.27l0.379-0.395l14.09-13.678l0.207-0.174c2.203-1.867,5.059-2.895,8.039-2.895  c2.895,0,5.684,0.975,7.855,2.742l7.926,6.479c0.121-0.066,0.242-0.133,0.363-0.199l-1.598-9.697  c-0.977-5.961,2.598-11.842,8.316-13.711l0.551-0.16l19.211-4.779l0.254-0.047c0.703-0.127,1.414-0.189,2.125-0.189  c5.117,0,9.934,3.299,11.719,8.023l3.555,9.385l3.367-8.895c1.789-4.742,6.449-7.934,11.59-7.934c0.828,0,1.652,0.084,2.453,0.254  l0.531,0.131l2.625,0.743V141H76v200h182.193C258.658,341,259.221,340.283,260,339.753z" fill="#FFFFFF"/><path d="M352.395,237.361l0.309,0.817l5.356,14.152c1.215-0.058,2.411-0.187,3.644-0.187  c2.376,0,4.712,0.154,7.033,0.36l5.543-14.645c0.717-1.894,2.929-3.102,4.915-2.683l18.98,5.371  c1.909,0.688,3.202,2.886,2.873,4.884l-2.588,15.7c2.996,1.556,5.876,3.271,8.634,5.176l12.162-9.936  c1.571-1.283,4.094-1.228,5.607,0.121l13.878,14.207c1.313,1.544,1.334,4.09,0.048,5.656l-10.065,12.254  c1.734,2.671,3.28,5.464,4.69,8.343l15.708-2.574c2.003-0.328,4.174,0.973,4.823,2.891l5.023,19.262  c0.375,1.99-0.872,4.202-2.771,4.917l-14.909,5.609c0.09,1.56,0.238,3.106,0.238,4.687c0,1.582-0.148,3.128-0.238,4.684l14.909,5.61  c1.9,0.715,3.147,2.927,2.771,4.917l-5.023,19.265c-0.625,1.846-2.658,3.084-4.597,2.885c-0.005,0.014-0.01,0.028-0.015,0.041  l-15.923-2.608c-1.406,2.879-2.952,5.676-4.686,8.347l10.065,12.248l0.296,0.361c-0.019,0.026-0.04,0.05-0.059,0.077  c0.983,1.572,0.919,3.8-0.285,5.217l-13.878,14.207c-1.33,1.186-3.406,1.309-4.964,0.466c-0.037,0.029-0.072,0.062-0.109,0.091  l-12.697-10.376c-2.758,1.905-5.638,3.624-8.634,5.177c0,0,2.614,16.5,2.566,16.522c-0.079,1.746-1.2,3.47-2.851,4.064  l-18.979,5.372c-1.679,0.354-3.451-0.457-4.397-1.817c-0.061,0.008-6.061-15.507-6.061-15.507c-2.321,0.201-4.658,0.352-7.033,0.352  c-1.233,0-2.43-0.126-3.641-0.183c0,0-6.076,15.798-6.123,15.793c-0.884,1.404-2.72,2.283-4.477,1.965l-18.96-4.723  c-1.789-0.586-3.025-2.247-2.983-3.819c-0.026-0.011,2.627-16.482,2.627-16.482c-3.443-1.596-6.77-3.394-9.925-5.45l-12.825,10.48  v0.001l-0.137,0.111c-0.012-0.009-0.023-0.019-0.035-0.028c-1.287,0.898-3.448,0.669-4.936-0.591l-13.897-13.489  c-1.357-1.506-1.637-3.748-0.624-4.981c0.008-0.009,0.019-0.01,0.027-0.019c-0.002-0.002-0.004-0.005-0.004-0.005l10.441-12.709  c-2.25-3.214-4.225-6.614-5.988-10.144l-16.235,2.655c-0.005-0.013-0.01-0.026-0.015-0.039c-0.056,0.013-0.093,0.057-0.151,0.066  c-1.642,0.269-3.525-1.078-4.184-2.993l-5.006-18.573c-0.393-1.986,0.621-4.114,2.254-4.728c0.058-0.022,0.166-0.048,0.165-0.062  l15.108-5.681c-0.148-1.977-0.303-3.954-0.303-5.967c0-2.013,0.155-3.987,0.303-5.964c0,0-14.897-5.629-14.895-5.641  c-0.054-0.017-0.106-0.002-0.16-0.022c-1.752-0.659-2.865-2.824-2.472-4.81l5.006-18.577c0.659-1.915,2.837-3.213,4.841-2.886  l0.23,0.038l15.514,2.54c1.763-3.53,3.738-6.93,5.988-10.14l-9.757-11.876l-0.21-0.256c-1.287-1.566-1.23-4.08,0.127-5.587  l13.897-13.492c1.548-1.31,4.099-1.332,5.67-0.05l0.422,0.345l11.842,9.674c3.162-2.049,6.482-3.854,9.925-5.45l-2.442-14.845  l-0.111-0.675c-0.329-1.998,0.981-4.149,2.91-4.78l18.956-4.717C349.458,234.213,351.679,235.467,352.395,237.361z" fill="#1B7C96"/><circle cx="361.786" cy="330.304" fill="#FFFFFF" r="46.738"/><circle cx="361.786" cy="330.304" fill="#FF5F5F" r="36"/><path d="M277.119,393.758l-8.944,7.621c0.337,1.145,0.68,2.287,0.937,3.472c0.315,1.456,0.536,2.909,0.716,4.36  l11.191,3.208c1.332,0.382,2.378,1.827,2.325,3.212l-1.318,12.275c-0.248,1.363-1.581,2.566-2.962,2.673l-11.729,0.909  c-0.873,2.436-1.925,4.791-3.166,7.048l7.186,9.197c0.853,1.092,0.854,2.879,0.002,3.971l-8.326,9.235  c-0.997,0.962-2.779,1.156-3.959,0.43l-9.981-6.133c-2.061,1.416-4.26,2.658-6.557,3.754l0.409,11.698  c0.049,1.385-0.988,2.875-2.303,3.312c0,0-3.083,1.024-5.964,1.648c-2.928,0.634-6.249,0.982-6.249,0.982  c-1.378,0.144-2.938-0.785-3.467-2.066l-4.473-10.837c-2.53-0.055-5.032-0.275-7.48-0.714l-6.543,9.701  c-0.775,1.149-2.476,1.707-3.781,1.242l-11.418-4.996c-1.227-0.645-1.964-2.274-1.639-3.621l2.741-11.356  c-2.03-1.525-3.93-3.215-5.705-5.046l-11.053,4.023c-1.302,0.474-3.013-0.07-3.802-1.209l-6.294-10.676  c-0.62-1.239-0.264-2.988,0.791-3.887l8.869-7.556c-0.427-1.374-0.823-2.765-1.133-4.197c-0.252-1.162-0.407-2.321-0.572-3.479  l-11.304-3.241c-1.332-0.382-2.395-1.827-2.362-3.213l1.132-12.242c0.227-1.367,1.543-2.573,2.924-2.679l11.654-0.903  c0.87-2.582,1.927-5.085,3.207-7.473l-7.21-9.228c-0.853-1.092-0.863-2.886-0.021-3.987l8.08-9.152  c0.986-0.974,2.758-1.177,3.939-0.452l9.915,6.092c2.25-1.599,4.675-2.982,7.215-4.192l-0.409-11.695  c-0.048-1.385,0.988-2.875,2.303-3.311c0,0,3.072-1.02,5.947-1.642c2.829-0.613,5.956-0.949,5.956-0.949  c1.378-0.148,2.937,0.778,3.466,2.059l4.458,10.8c2.829,0.044,5.625,0.293,8.351,0.816l6.509-9.65  c0.775-1.149,2.473-1.699,3.774-1.222l11.124,4.958c1.223,0.652,1.957,2.287,1.632,3.634l-2.746,11.375  c2.187,1.661,4.217,3.521,6.103,5.538l10.987-3.999c1.302-0.474,2.999,0.079,3.772,1.229l6.078,10.632  C278.542,391.103,278.173,392.859,277.119,393.758z" fill="#004259"/><path d="M220.938,443c-13.07,0-24.565-9.185-27.335-21.974c-1.581-7.307-0.224-14.743,3.823-21.029  c4.049-6.286,10.303-10.593,17.611-12.175c1.955-0.423,3.956-0.624,5.944-0.624c13.07,0,24.565,9.287,27.335,22.079  c1.583,7.304,0.225,14.795-3.823,21.082c-4.049,6.283-10.302,10.52-17.609,12.103c-1.957,0.423-3.957,0.539-5.944,0.539H220.938z" fill="#30A2B5"/><path d="M260,169c0,2.209-1.791,4-4,4H104c-2.209,0-4-1.791-4-4l0,0c0-2.209,1.791-4,4-4h152  C258.209,165,260,166.791,260,169L260,169z" fill="#FF5F5F"/><path d="M220,189c0,2.209-1.791,4-4,4H104c-2.209,0-4-1.791-4-4l0,0c0-2.209,1.791-4,4-4h112  C218.209,185,220,186.791,220,189L220,189z" fill="#FF5F5F"/></svg>