<?xml version="1.0" ?><!DOCTYPE svg  PUBLIC '-//W3C//DTD SVG 1.1//EN'  'http://www.w3.org/Graphics/SVG/1.1/DTD/svg11.dtd'><svg enable-background="new 0 0 512 512" height="512px" id="Layer_1" version="1.1" viewBox="0 0 512 512" width="512px" xml:space="preserve" xmlns="http://www.w3.org/2000/svg" xmlns:xlink="http://www.w3.org/1999/xlink"><circle cx="256.326" cy="255.503" fill="#82D0D8" r="256"/><g><g><path d="M352.326,47.503c0-8.836-6.923-16-15.462-16H175.788c-8.539,0-15.462,7.164-15.462,16v104    c0,8.836,6.923,16,15.462,16h161.076c8.539,0,15.462-7.164,15.462-16V47.503z" fill="#004259"/></g></g><g><path d="M160.326,316.552c0-8.836-6.923-16-15.462-16H31.788c-8.539,0-15.462,7.164-15.462,16v80   c0,8.836,6.923,16,15.462,16h113.076c8.539,0,15.462-7.164,15.462-16V316.552z" fill="#FF4D4D"/><path d="M136.326,324.552v64h-96v-64H136.326 M144.864,300.552H31.788c-8.539,0-15.462,7.164-15.462,16v80   c0,8.836,6.923,16,15.462,16h113.076c8.539,0,15.462-7.164,15.462-16v-80C160.326,307.716,153.403,300.552,144.864,300.552   L144.864,300.552z" fill="#004259"/></g><g><path d="M328.326,316.552c0-8.836-6.923-16-15.462-16H199.788c-8.539,0-15.462,7.164-15.462,16v80   c0,8.836,6.923,16,15.462,16h113.076c8.539,0,15.462-7.164,15.462-16V316.552z" fill="#1B7C96"/><path d="M304.326,324.552v64h-96v-64H304.326 M312.864,300.552H199.788c-8.539,0-15.462,7.164-15.462,16v80   c0,8.836,6.923,16,15.462,16h113.076c8.539,0,15.462-7.164,15.462-16v-80C328.326,307.716,321.403,300.552,312.864,300.552   L312.864,300.552z" fill="#004259"/></g><g><path d="M496.326,316.552c0-8.836-6.923-16-15.462-16H367.788c-8.539,0-15.462,7.164-15.462,16v80   c0,8.836,6.923,16,15.462,16h113.076c8.539,0,15.462-7.164,15.462-16V316.552z" fill="#FFFFFF"/><path d="M472.326,324.552v64h-96v-64H472.326 M480.864,300.552H367.788c-8.539,0-15.462,7.164-15.462,16v80   c0,8.836,6.923,16,15.462,16h113.076c8.539,0,15.462-7.164,15.462-16v-80C496.326,307.716,489.403,300.552,480.864,300.552   L480.864,300.552z" fill="#004259"/></g><path d="M410.865,221H267v-44h-24v44H101.787C86.646,221,75,233.572,75,249.01V293h24v-43.99  c0-2.207,0.877-4.01,2.787-4.01H243v48h24v-48h143.865c1.91,0,4.135,1.803,4.135,4.01V293h24v-43.99  C439,233.572,426.006,221,410.865,221z" fill="#004259"/></svg>