<?xml version="1.0" ?><!DOCTYPE svg  PUBLIC '-//W3C//DTD SVG 1.1//EN'  'http://www.w3.org/Graphics/SVG/1.1/DTD/svg11.dtd'><svg enable-background="new 0 0 512 512" height="512px" id="Layer_1" version="1.1" viewBox="0 0 512 512" width="512px" xml:space="preserve" xmlns="http://www.w3.org/2000/svg" xmlns:xlink="http://www.w3.org/1999/xlink"><circle cx="256.333" cy="255.751" fill="#82D0D8" r="256"/><path d="M400.333,91.751c0-8.836-7.164-16-16-16h-288c-8.836,0-16,7.164-16,16v188c0,8.836,7.164,16,16,16h288  c8.836,0,16-7.164,16-16V91.751z" fill="#004259"/><rect fill="#FFFFFF" height="168" width="288" x="96.333" y="91.751"/><rect fill="#002833" height="40" width="72" x="204.333" y="295.751"/><path d="M300.333,339.751c0,2.211-1.789,4-4,4h-112c-2.209,0-4-1.789-4-4l0,0c0-2.211,1.791-4,4-4h112  C298.544,335.751,300.333,337.54,300.333,339.751L300.333,339.751z" fill="#004259"/><circle cx="241.638" cy="277.149" fill="#30A2B5" r="8"/><path d="M246.638,277.149c0,2.766-2.234,5-5,5c-2.762,0-5-2.234-5-5s2.238-5,5-5  C244.404,272.149,246.638,274.384,246.638,277.149z" fill="#004259"/><path d="M120.333,223.751h-64c-4.418,0-8,3.582-8,8v140c0,4.418,3.582,8,8,8h64c4.418,0,8-3.582,8-8v-140  C128.333,227.333,124.751,223.751,120.333,223.751z M120.333,351.751h-64v-116h64V351.751z" fill="#004259"/><path d="M96.279,365.739c0,4.418-3.586,8-8,8c-4.422,0-8-3.582-8-8s3.578-8,8-8  C92.693,357.739,96.279,361.321,96.279,365.739z" fill="#30A2B5"/><path d="M88.333,360.751c-2.762,0-5,2.238-5,5c0,2.762,2.238,5,5,5c2.766,0,5-2.238,5-5  C93.333,362.989,91.099,360.751,88.333,360.751z" fill="#004259"/><g><path d="M98.333,227.751h-12c-1.106,0-2,0.894-2,2s0.894,2,2,2h12c1.106,0,2-0.894,2-2   S99.439,227.751,98.333,227.751z" fill="#FFFFFF"/><circle cx="78.365" cy="229.782" fill="#FFFFFF" r="2.031"/></g><rect fill="#FFFFFF" height="116" width="64" x="56.333" y="235.751"/><g><path d="M204.333,143.751c0,2.2,1.8,4,4,4h144c2.2,0,4-1.8,4-4v-24c0-2.2-1.8-4-4-4h-144c-2.2,0-4,1.8-4,4V143.751z   " fill="#30A2B5"/><path d="M124.333,143.751c0,2.2,1.8,4,4,4h64c2.2,0,4-1.8,4-4v-24c0-2.2-1.8-4-4-4h-64c-2.2,0-4,1.8-4,4V143.751z" fill="#30A2B5"/><path d="M148.333,159.751c0,2.2,1.8,4,4,4h40c2.2,0,4-1.8,4-4l0,0c0-2.2-1.8-4-4-4h-40   C150.133,155.751,148.333,157.551,148.333,159.751L148.333,159.751z" fill="#30A2B5"/><path d="M148.333,175.751c0,2.2,1.8,4,4,4h40c2.2,0,4-1.8,4-4l0,0c0-2.2-1.8-4-4-4h-40   C150.133,171.751,148.333,173.551,148.333,175.751L148.333,175.751z" fill="#30A2B5"/><path d="M124.333,159.751c0,2.2,1.8,4,4,4h8c2.2,0,4-1.8,4-4l0,0c0-2.2-1.8-4-4-4h-8   C126.133,155.751,124.333,157.551,124.333,159.751L124.333,159.751z" fill="#30A2B5"/><path d="M124.333,175.751c0,2.2,1.8,4,4,4h8c2.2,0,4-1.8,4-4l0,0c0-2.2-1.8-4-4-4h-8   C126.133,171.751,124.333,173.551,124.333,175.751L124.333,175.751z" fill="#30A2B5"/><path d="M204.333,159.751c0,2.2,1.8,4,4,4h144c2.2,0,4-1.8,4-4l0,0c0-2.2-1.8-4-4-4h-144   C206.133,155.751,204.333,157.551,204.333,159.751L204.333,159.751z" fill="#30A2B5"/><path d="M204.333,175.751c0,2.2,1.8,4,4,4h144c2.2,0,4-1.8,4-4l0,0c0-2.2-1.8-4-4-4h-144   C206.133,171.751,204.333,173.551,204.333,175.751L204.333,175.751z" fill="#30A2B5"/><path d="M204.333,191.751c0,2.2,1.8,4,4,4h144c2.2,0,4-1.8,4-4l0,0c0-2.2-1.8-4-4-4h-144   C206.133,187.751,204.333,189.551,204.333,191.751L204.333,191.751z" fill="#30A2B5"/></g><path d="M464.333,247.751c0-4.418-5.024-8-9.438-8h-136c-4.422,0-6.562,3.582-6.562,8v184c0,4.418,2.141,8,6.562,8  h136c4.414,0,9.438-3.582,9.438-8V247.751z" fill="#004259"/><path d="M394.939,425.727c0,4.446-3.602,8.047-8.043,8.047c-4.445,0-8.047-3.602-8.047-8.047  c0-4.441,3.602-8.043,8.047-8.043C391.337,417.685,394.939,421.286,394.939,425.727z" fill="#30A2B5"/><path d="M386.896,420.751c-2.766,0-5,2.238-5,5c0,2.762,2.234,5,5,5c2.766,0,5-2.238,5-5  C391.896,422.989,389.661,420.751,386.896,420.751z" fill="#004259"/><rect fill="#FFFFFF" height="156" width="120" x="328.333" y="255.751"/><circle cx="389.255" cy="247.751" fill="#FFFFFF" r="2"/><g><g><path d="M336.333,291.751c0,2.2,1.8,4,4,4h96c2.2,0,4-1.8,4-4v-24c0-2.2-1.8-4-4-4h-96c-2.2,0-4,1.8-4,4V291.751z" fill="#FF5F5F"/></g><g><path d="M360.333,307.751c0,2.2,1.8,4,4,4h72c2.2,0,4-1.8,4-4l0,0c0-2.2-1.8-4-4-4h-72    C362.133,303.751,360.333,305.551,360.333,307.751L360.333,307.751z" fill="#FF5F5F"/></g><g><path d="M360.333,323.751c0,2.2,1.8,4,4,4h72c2.2,0,4-1.8,4-4l0,0c0-2.2-1.8-4-4-4h-72    C362.133,319.751,360.333,321.551,360.333,323.751L360.333,323.751z" fill="#FF5F5F"/></g><g><path d="M336.333,307.751c0,2.2,1.8,4,4,4h8c2.2,0,4-1.8,4-4l0,0c0-2.2-1.8-4-4-4h-8    C338.133,303.751,336.333,305.551,336.333,307.751L336.333,307.751z" fill="#FF5F5F"/></g><g><path d="M336.333,323.751c0,2.2,1.8,4,4,4h8c2.2,0,4-1.8,4-4l0,0c0-2.2-1.8-4-4-4h-8    C338.133,319.751,336.333,321.551,336.333,323.751L336.333,323.751z" fill="#FF5F5F"/></g><g><path d="M336.333,379.751c0,2.2,1.8,4,4,4h96c2.2,0,4-1.8,4-4v-24c0-2.2-1.8-4-4-4h-96c-2.2,0-4,1.8-4,4V379.751z" fill="#FF5F5F"/></g><g><path d="M336.333,395.751c0,2.2,1.8,4,4,4h96c2.2,0,4-1.8,4-4l0,0c0-2.2-1.8-4-4-4h-96    C338.133,391.751,336.333,393.551,336.333,395.751L336.333,395.751z" fill="#FF5F5F"/></g></g><circle cx="243.717" cy="83.751" fill="#FFFFFF" r="2.001"/><g><path d="M64.333,271.751c0,2.2,1.8,4,4,4h40c2.2,0,4-1.8,4-4v-24c0-2.2-1.8-4-4-4h-40c-2.2,0-4,1.8-4,4V271.751z" fill="#FF5F5F"/><path d="M80.333,287.751c0,2.2,1.8,4,4,4h24c2.2,0,4-1.8,4-4l0,0c0-2.2-1.8-4-4-4h-24   C82.133,283.751,80.333,285.551,80.333,287.751L80.333,287.751z" fill="#FF5F5F"/><path d="M80.333,303.751c0,2.2,1.8,4,4,4h24c2.2,0,4-1.8,4-4l0,0c0-2.2-1.8-4-4-4h-24   C82.133,299.751,80.333,301.551,80.333,303.751L80.333,303.751z" fill="#FF5F5F"/><path d="M64.333,287.751c0,2.2,1.8,4,4,4l0,0c2.2,0,4-1.8,4-4l0,0c0-2.2-1.8-4-4-4l0,0   C66.133,283.751,64.333,285.551,64.333,287.751L64.333,287.751z" fill="#FF5F5F"/><path d="M64.333,303.751c0,2.2,1.8,4,4,4l0,0c2.2,0,4-1.8,4-4l0,0c0-2.2-1.8-4-4-4l0,0   C66.133,299.751,64.333,301.551,64.333,303.751L64.333,303.751z" fill="#FF5F5F"/><path d="M68.333,351.751h40h4v-16c0-2.2-1.8-4-4-4h-40c-2.2,0-4,1.8-4,4v16H68.333z" fill="#FF5F5F"/></g></svg>