<?xml version="1.0" encoding="UTF-8"?>
<svg version="1.1" xmlns="http://www.w3.org/2000/svg" width="500" height="500">
<path d="M0 0 C165 0 330 0 500 0 C500 165 500 330 500 500 C335 500 170 500 0 500 C0 335 0 170 0 0 Z " fill="#F3F3F3" transform="translate(0,0)"/>
<path d="M0 0 C5.72918561 3.09726945 10.85852307 6.71884286 16.0625 10.625 C17.74549102 11.87711264 19.42908983 13.12840871 21.11328125 14.37890625 C21.93908691 14.99266113 22.76489258 15.60641602 23.61572266 16.23876953 C29.02373565 20.23358888 34.51640021 24.10998441 40 28 C42.33440597 29.66517049 44.66725727 31.33249923 47 33 C44.04439936 38.40796952 40.7078046 43.34840131 37.0625 48.3125 C35.89704198 49.91269237 34.73168008 51.51295475 33.56640625 53.11328125 C32.67719482 54.33072021 32.67719482 54.33072021 31.77001953 55.57275391 C28.99956967 59.37190046 26.25036383 63.18630159 23.5 67 C22.41677972 68.50008164 21.3334461 70.00008145 20.25 71.5 C19.71375 72.2425 19.1775 72.985 18.625 73.75 C13.75 80.5 13.75 80.5 12.12426758 82.75097656 C11.04332809 84.24768701 9.96243599 85.74443168 8.8815918 87.24121094 C6.1370246 91.04182637 3.39158034 94.84180298 0.64453125 98.640625 C-4.65621811 105.97250262 -9.94678705 113.31094636 -15.1965332 120.67944336 C-18.5674928 125.40635742 -21.97022626 130.10990663 -25.375 134.8125 C-29.62242981 140.68131403 -33.83239752 146.57424407 -38 152.5 C-43.6990876 160.60132202 -49.49015026 168.63393502 -55.30175781 176.65478516 C-58.30956732 180.80846803 -61.31057697 184.96706204 -64.3125 189.125 C-65.41273201 190.64845801 -66.51298969 192.1718975 -67.61328125 193.6953125 C-68.07516846 194.33484863 -68.53705566 194.97438477 -69.01293945 195.63330078 C-69.33866943 196.08431152 -69.66439941 196.53532227 -70 197 C-65.98767038 201.28822655 -61.6002544 204.6168533 -56.8125 208 C-55.19911827 209.15220307 -53.58583998 210.30455098 -51.97265625 211.45703125 C-51.14910645 212.04307129 -50.32555664 212.62911133 -49.47705078 213.23291016 C-45.55392164 216.03161001 -41.65318184 218.86108696 -37.75 221.6875 C-30.76634279 226.73421603 -23.76384752 231.75386174 -16.74707031 236.75439453 C-13.53807715 239.04230441 -10.33174672 241.33394315 -7.125 243.625 C-5.94011467 244.47136888 -4.75521987 245.31772448 -3.5703125 246.1640625 C-2.72210938 246.76992188 -1.87390625 247.37578125 -1 248 C-1.60807664 251.12048395 -2.60194454 253.14532995 -4.484375 255.6953125 C-5.00161133 256.40300781 -5.51884766 257.11070312 -6.05175781 257.83984375 C-6.61217773 258.59394531 -7.17259766 259.34804688 -7.75 260.125 C-8.92721384 261.73167522 -10.10429304 263.3384491 -11.28125 264.9453125 C-11.89097656 265.77321289 -12.50070313 266.60111328 -13.12890625 267.45410156 C-16.19091521 271.62041543 -19.22053044 275.81000008 -22.25 280 C-22.81041992 280.77102051 -23.37083984 281.54204102 -23.94824219 282.33642578 C-24.72409668 283.40739502 -24.72409668 283.40739502 -25.515625 284.5 C-25.97227539 285.1290625 -26.42892578 285.758125 -26.89941406 286.40625 C-28.06740722 288.01793675 -28.06740722 288.01793675 -29 290 C-31.66148909 288.72757348 -34.07233827 287.34399338 -36.4765625 285.63671875 C-37.13785156 285.16878906 -37.79914063 284.70085937 -38.48046875 284.21875 C-39.18816406 283.7134375 -39.89585937 283.208125 -40.625 282.6875 C-41.37136719 282.15769531 -42.11773437 281.62789063 -42.88671875 281.08203125 C-49.0374633 276.70771209 -55.15413894 272.28640548 -61.26611328 267.8581543 C-66.31835587 264.20156786 -71.39842059 260.58737149 -76.5 257 C-84.62797303 251.28226802 -92.68666362 245.47175675 -100.73388672 239.64111328 C-104.48644811 236.92351819 -108.24347667 234.21211427 -112 231.5 C-113.4869833 230.42578697 -114.97396246 229.35156821 -116.4609375 228.27734375 C-119.58970501 226.01752711 -122.72014802 223.76005342 -125.8515625 221.50390625 C-126.65078125 220.92769531 -127.45 220.35148438 -128.2734375 219.7578125 C-129.78601316 218.66735098 -131.29900059 217.57746029 -132.8125 216.48828125 C-137.58382841 213.04724887 -142.30577763 209.54546852 -147 206 C-145.37295901 200.9192401 -142.32257069 197.04740318 -139.1875 192.8125 C-138.00376568 191.19411323 -136.82017591 189.57562071 -135.63671875 187.95703125 C-134.72865479 186.72073975 -134.72865479 186.72073975 -133.80224609 185.45947266 C-131.01410497 181.65457781 -128.2577876 177.82691923 -125.5 174 C-124.41683927 172.49987536 -123.3335054 170.99987571 -122.25 169.5 C-121.71375 168.7575 -121.1775 168.015 -120.625 167.25 C-115.75 160.5 -115.75 160.5 -114.12475586 158.24975586 C-113.04211746 156.7506555 -111.9595978 155.25146938 -110.87719727 153.75219727 C-108.15920177 149.98771832 -105.43911932 146.22478096 -102.71484375 142.46484375 C-97.43419578 135.17252036 -92.1804866 127.8638988 -87 120.5 C-81.28208009 112.37215666 -75.47175905 104.31333956 -69.64111328 96.26611328 C-66.92351837 92.51355215 -64.21198061 88.75661955 -61.5 85 C-58.24130943 80.48608105 -54.9813334 75.97312335 -51.71484375 71.46484375 C-46.43419578 64.17252036 -41.1804866 56.8638988 -36 49.5 C-30.29538423 41.39106807 -24.49821554 33.35139392 -18.68066406 25.32324219 C-16.92627498 22.89808726 -15.17735217 20.46906715 -13.4296875 18.0390625 C-12.84501709 17.22687256 -12.26034668 16.41468262 -11.65795898 15.57788086 C-10.54193646 14.02729529 -9.42681015 12.47606415 -8.31274414 10.92407227 C-5.63178145 7.20295232 -2.90797953 3.54954815 0 0 Z " fill="#010101" transform="translate(244,87)"/>
<path d="M0 0 C51.81 0 103.62 0 157 0 C157 8.58 157 17.16 157 26 C105.19 26 53.38 26 0 26 C0 17.42 0 8.84 0 0 Z " fill="#020202" transform="translate(266,353)"/>
</svg>
